<?xml version="1.0" encoding="UTF-8" standalone="no" ?>
<!DOCTYPE svg PUBLIC "-//W3C//DTD SVG 1.1//EN" "http://www.w3.org/Graphics/SVG/1.1/DTD/svg11.dtd">
<svg xmlns="http://www.w3.org/2000/svg" xmlns:xlink="http://www.w3.org/1999/xlink" version="1.1" width="1080" height="1080" viewBox="0 0 1080 1080" xml:space="preserve">
<desc>Created with Fabric.js 5.2.4</desc>
<defs>
</defs>
<rect x="0" y="0" width="100%" height="100%" fill="transparent"></rect>
<g transform="matrix(1 0 0 1 540 540)" id="7be1a1df-34c0-4471-8331-645b979453bf"  >
<rect style="stroke: none; stroke-width: 1; stroke-dasharray: none; stroke-linecap: butt; stroke-dashoffset: 0; stroke-linejoin: miter; stroke-miterlimit: 4; fill: rgb(255,255,255); fill-rule: nonzero; opacity: 1; visibility: hidden;" vector-effect="non-scaling-stroke"  x="-540" y="-540" rx="0" ry="0" width="1080" height="1080" />
</g>
<g transform="matrix(1 0 0 1 540 540)" id="60316add-838b-4606-9341-602a10666244"  >
</g>
<g transform="matrix(1.03 0 0 1.03 540 540)"  >
<g style="" vector-effect="non-scaling-stroke"   >
		<g transform="matrix(1 0 0 1 1 -0.5)" id="Path"  >
<path style="stroke: none; stroke-width: 1; stroke-dasharray: none; stroke-linecap: butt; stroke-dashoffset: 0; stroke-linejoin: miter; stroke-miterlimit: 4; fill: rgb(8,126,164); fill-rule: nonzero; opacity: 1;" vector-effect="non-scaling-stroke"  transform=" translate(-285.5, -255.5)" d="M 285.5 201 C 255.400481 201 231 225.400481 231 255.5 C 231 285.599519 255.400481 310 285.5 310 C 315.599519 310 340 285.599519 340 255.5 C 340 225.400481 315.599519 201 285.5 201" stroke-linecap="round" />
</g>
		<g transform="matrix(1 0 0 1 0 0)" id="Shape"  >
<path style="stroke: none; stroke-width: 1; stroke-dasharray: none; stroke-linecap: butt; stroke-dashoffset: 0; stroke-linejoin: miter; stroke-miterlimit: 4; fill: rgb(8,126,164); fill-rule: nonzero; opacity: 1;" vector-effect="non-scaling-stroke"  transform=" translate(-284.5, -256)" d="M 568.959856 255.99437 C 568.959856 213.207656 529.337802 175.68144 466.251623 150.985214 C 467.094645 145.423543 467.85738 139.922107 468.399323 134.521063 C 474.621631 73.0415145 459.808523 28.6686204 426.709856 9.5541429 C 389.677085 -11.8291748 337.36955 3.69129898 284.479928 46.0162134 C 231.590306 3.69129898 179.282771 -11.8291748 142.25 9.5541429 C 109.151333 28.6686204 94.3382249 73.0415145 100.560533 134.521063 C 101.102476 139.922107 101.845139 145.443621 102.708233 151.02537 C 97.4493791 153.033193 92.2908847 155.161486 87.3331099 157.39017 C 31.0111824 182.708821 0 217.765415 0 255.99437 C 0 298.781084 39.6220545 336.307301 102.708233 361.003527 C 101.845139 366.565197 101.102476 372.066633 100.560533 377.467678 C 94.3382249 438.947226 109.151333 483.32012 142.25 502.434597 C 153.629683 508.887578 166.52439 512.186771 179.603923 511.991836 C 210.956328 511.991836 247.567589 495.487529 284.479928 465.972527 C 321.372196 495.487529 358.003528 511.991836 389.396077 511.991836 C 402.475265 512.183856 415.36922 508.884856 426.75 502.434597 C 459.848667 483.32012 474.661775 438.947226 468.439467 377.467678 C 467.897524 372.066633 467.134789 366.565197 466.291767 361.003527 C 529.377946 336.347457 569 298.761006 569 255.99437 M 389.155214 27.1025182 C 397.565154 26.899606 405.877839 28.9368502 413.241569 33.0055186 C 436.223966 46.2772304 446.540955 82.2775015 441.522965 131.770345 C 441.181741 135.143488 440.780302 138.556788 440.298575 141.990165 C 414.066922 134.08804 387.205771 128.452154 360.010724 125.144528 C 343.525021 103.224055 325.192524 82.7564475 305.214266 63.9661533 C 336.586743 39.7116483 366.032313 27.1025182 389.135142 27.1025182 M 378.356498 310.205598 C 368.204912 327.830733 357.150626 344.919965 345.237759 361.405091 C 325.045049 363.479997 304.758818 364.51205 284.459856 364.497299 C 264.167589 364.51136 243.888075 363.479308 223.702025 361.405091 C 211.820914 344.919381 200.80007 327.83006 190.683646 310.205598 C 180.532593 292.629285 171.306974 274.534187 163.044553 255.99437 C 171.306974 237.454554 180.532593 219.359455 190.683646 201.783142 C 200.784121 184.229367 211.770999 167.201087 223.601665 150.764353 C 243.824636 148.63809 264.145559 147.579168 284.479928 147.591877 C 304.772146 147.579725 325.051559 148.611772 345.237759 150.68404 C 357.109048 167.14607 368.136094 184.201112 378.27621 201.783142 C 388.419418 219.363718 397.644825 237.458403 405.915303 255.99437 C 397.644825 274.530337 388.419418 292.625022 378.27621 310.205598 M 419.724813 290.127366 C 426.09516 307.503536 431.324985 325.277083 435.380944 343.334682 C 417.779633 348.823635 399.836793 353.149774 381.668372 356.285142 C 388.573127 345.871232 395.263781 335.035679 401.740334 323.778483 C 408.143291 312.655143 414.144807 301.431411 419.805101 290.207679 M 246.363271 390.377981 C 258.848032 391.140954 271.593728 391.582675 284.5 391.582675 C 297.406272 391.582675 310.232256 391.140954 322.737089 390.377981 C 310.880643 404.583418 298.10766 417.997563 284.5 430.534446 C 270.921643 417.999548 258.18192 404.585125 246.363271 390.377981 Z M 187.311556 356.244986 C 169.137286 353.123646 151.187726 348.810918 133.578912 343.334682 C 137.618549 325.305649 142.828222 307.559058 149.174827 290.207679 C 154.754833 301.431411 160.736278 312.655143 167.239594 323.778483 C 173.74291 334.901824 180.467017 345.864539 187.311556 356.285142 M 149.174827 221.760984 C 142.850954 204.473938 137.654787 186.794745 133.619056 168.834762 C 151.18418 163.352378 169.085653 159.013101 187.211197 155.844146 C 180.346585 166.224592 173.622478 176.986525 167.139234 188.210257 C 160.65599 199.433989 154.734761 210.517173 149.074467 221.760984 M 322.616657 121.590681 C 310.131896 120.827708 297.3862 120.385987 284.379568 120.385987 C 271.479987 120.385987 258.767744 120.787552 246.242839 121.590681 C 258.061488 107.383537 270.801211 93.9691137 284.379568 81.4342157 C 297.99241 93.9658277 310.765727 107.380324 322.616657 121.590681 Z M 401.70019 188.210257 C 395.196875 176.939676 388.472767 166.09743 381.527868 155.68352 C 399.744224 158.819049 417.734224 163.151949 435.380944 168.654058 C 431.331963 186.680673 426.122466 204.426664 419.785029 221.781062 C 414.205023 210.55733 408.203506 199.333598 401.720262 188.230335 M 127.517179 131.790423 C 122.438973 82.3176579 132.816178 46.2973086 155.778503 33.0255968 C 163.144699 28.9632474 171.455651 26.9264282 179.864858 27.1225964 C 202.967687 27.1225964 232.413257 39.7317265 263.785734 63.9862316 C 243.794133 82.7898734 225.448298 103.270812 208.949132 125.204763 C 181.761691 128.528025 154.90355 134.14313 128.661281 141.990165 C 128.199626 138.556788 127.778115 135.163566 127.456963 131.790423 M 98.4529773 182.106474 C 101.54406 180.767925 104.695358 179.429376 107.906872 178.090828 C 114.220532 204.735668 122.781793 230.7969 133.498624 255.99437 C 122.761529 281.241316 114.193296 307.357063 107.8868 334.058539 C 56.7434387 313.076786 27.0971497 284.003505 27.0971497 255.99437 C 27.0971497 229.450947 53.1907013 202.526037 98.4529773 182.106474 Z M 155.778503 478.963143 C 132.816178 465.691432 122.438973 429.671082 127.517179 380.198317 C 127.838331 376.825174 128.259842 373.431953 128.721497 369.978497 C 154.953686 377.878517 181.814655 383.514365 209.009348 386.824134 C 225.500295 408.752719 243.832321 429.233234 263.805806 448.042665 C 220.069 481.834331 180.105722 492.97775 155.838719 478.963143 M 441.502893 380.198317 C 446.520883 429.691161 436.203894 465.691432 413.221497 478.963143 C 388.974566 493.017906 348.991216 481.834331 305.274481 448.042665 C 325.241364 429.232737 343.566681 408.752215 360.050868 386.824134 C 387.245915 383.516508 414.107066 377.880622 440.338719 369.978497 C 440.820446 373.431953 441.221885 376.825174 441.563109 380.198317 M 461.193488 334.018382 C 454.869166 307.332523 446.294494 281.231049 435.561592 255.99437 C 446.289797 230.744081 454.857778 204.629101 461.173416 177.930202 C 512.216417 198.911955 541.942994 227.985236 541.942994 255.99437 C 541.942994 284.003505 512.296705 313.076786 461.153344 334.058539" stroke-linecap="round" />
</g>
</g>
</g>
</svg>